<?xml version="1.0" encoding="UTF-8" standalone="no"?>
<!-- Created with Inkscape (http://www.inkscape.org/) -->

<svg
   version="1.1"
   id="svg1"
   width="168.85333"
   height="128"
   viewBox="0 0 168.85333 128"
   sodipodi:docname="Discord_Symbol_Blurple_PMS.eps"
   xmlns:inkscape="http://www.inkscape.org/namespaces/inkscape"
   xmlns:sodipodi="http://sodipodi.sourceforge.net/DTD/sodipodi-0.dtd"
   xmlns="http://www.w3.org/2000/svg"
   xmlns:svg="http://www.w3.org/2000/svg">
  <defs
     id="defs1" />
  <sodipodi:namedview
     id="namedview1"
     pagecolor="#ffffff"
     bordercolor="#000000"
     borderopacity="0.25"
     inkscape:showpageshadow="2"
     inkscape:pageopacity="0.0"
     inkscape:pagecheckerboard="0"
     inkscape:deskcolor="#d1d1d1">
    <inkscape:page
       x="0"
       y="0"
       inkscape:label="1"
       id="page1"
       width="168.85333"
       height="128"
       margin="0"
       bleed="0" />
  </sodipodi:namedview>
  <g
     id="g1"
     inkscape:groupmode="layer"
     inkscape:label="1">
    <g
       id="group-R5">
      <path
         id="path2"
         d="m 843.574,305.855 c -62.636,0 -113.906,56.575 -113.906,126.536 0,69.961 49.758,126.789 113.906,126.789 64.153,0 114.918,-57.082 113.906,-126.789 -1.007,-69.707 -50.257,-126.536 -113.906,-126.536 z m -420.773,0 c -62.383,0 -114.156,56.575 -114.156,126.536 0,69.961 49.753,126.789 113.906,126.789 64.148,0 115.168,-57.082 114.16,-126.789 -1.012,-69.707 -50.262,-126.536 -113.91,-126.536 z M 811.5,960 c -12.375,-21.973 -23.488,-44.703 -33.59,-67.941 -95.976,14.398 -193.719,14.398 -289.945,0 C 478.113,915.297 466.746,938.027 454.371,960 364.207,944.594 276.313,917.57 192.969,879.434 27.7891,634.695 -16.9141,396.273 5.3125,161.137 102.043,89.6602 210.395,35.1055 325.816,0.253906 c 26.016,34.851594 49,71.980494 68.7,110.621094 -37.379,13.891 -73.496,31.32 -108.098,51.523 9.09,6.567 17.93,13.387 26.52,19.954 202.808,-95.4692 437.695,-95.4692 640.757,0 8.586,-7.071 17.426,-13.891 26.52,-19.954 -34.602,-20.457 -70.719,-37.632 -108.352,-51.773 19.7,-38.6445 42.684,-75.7695 68.7,-110.625 115.417,34.8555 223.767,89.1563 320.507,160.633 26.26,272.769 -44.96,509.172 -188.17,718.547 -83.087,38.136 -170.982,65.16 -261.146,80.316 L 811.5,960"
         style="fill:#5462b7;fill-opacity:1;fill-rule:nonzero;stroke:none"
         transform="matrix(0.13333333,0,0,-0.13333333,0,128)" />
    </g>
  </g>
</svg>
